:FULLY-SPECIFIED
:FORCE-ALL-JOINTS-BE-3DOF
:DEGREES
340
root 8.32173 16.0246 -20.7516 10.6891 21.8044 3.33106
lfemur -7.67209 13.8706 -8.98992
ltibia 40.0248 -0 0
lfoot 9.50228 29.1587 0.115266
ltoes -29.1216 0 0
rfemur -48.2403 -15.4919 12.7613
rtibia 55.0612 -0 0
rfoot 1.53833 -17.0191 -0.0184185
rtoes -4.43527 0 0
lowerback -1.2815 -1.67014 -1.2259
upperback 1.64017 -2.19759 0.0815726
thorax 2.45053 -1.11705 0.694903
lowerneck -5.91041 -8.35655 -0.530919
upperneck -1.67498 -11.1528 6.52841
head 0.893668 -5.50259 1.81982
lclavicle 0 0 0
lhumerus -48.3316 -33.3263 109.391
lradius 56.9733 -0 0
lwrist 21.1654 0 0
lhand 5.44711 12.0355 0.00673839
lfingers 0 0 0
lthumb 30.7942 39.4565 -0.000728629
rclavicle 0 0 0
rhumerus -24.3958 17.8262 -76.451
rradius 84.8157 -0 0
rwrist 1.72851 0 0
rhand -4.56798 -13.9071 0.000198363
rfingers 0 0 0
rthumb 21.2038 -42.6982 0.0140116
341
root 8.31041 16.033 -20.7012 10.7274 20.8837 3.05155
lfemur -7.40247 13.2495 -8.71043
ltibia 39.9683 -0 0
lfoot 10.7988 29.59 0.0323405
ltoes -29.0034 0 0
rfemur -48.3533 -15.9048 13.6233
rtibia 55.0436 -0 0
rfoot 1.13703 -16.7938 -0.00517143
rtoes -6.92943 0 0
lowerback -1.57979 -1.66496 -1.10498
upperback 1.54583 -2.19287 0.161073
thorax 2.51892 -1.11447 0.701097
lowerneck -6.01843 -8.18634 -0.610408
upperneck -1.48763 -10.9324 6.49577
head 0.965913 -5.38574 1.81575
lclavicle 0 0 0
lhumerus -48.2999 -32.4906 109.199
lradius 56.8208 -0 0
lwrist 21.5665 0 0
lhand 5.02919 11.9564 0.00189198
lfingers 0 0 0
lthumb 30.3972 39.4655 -0.000204584
rclavicle 0 0 0
rhumerus -25.1841 17.6793 -77.4492
rradius 84.948 -0 0
rwrist 1.8052 0 0
rhand -3.52055 -13.9061 5.56741e-05
rfingers 0 0 0
rthumb 22.213 -42.6304 0.00393272
342
root 8.08257 16.1287 -20.0733 10.7424 20.5513 2.95088
lfemur -7.30604 13.0249 -8.61042
ltibia 39.9479 0 0
lfoot 11.2668 29.7453 0
ltoes -28.9607 0 0
rfemur -48.3957 -16.0535 13.9352
rtibia 55.0372 0 0
rfoot 0.992131 -16.7125 0
rtoes -7.8301 0 0
lowerback -1.6875 -1.66294 -1.06132
upperback 1.51176 -2.19113 0.189779
thorax 2.54362 -1.11354 0.703334
lowerneck -6.05749 -8.12491 -0.639183
upperneck -1.42004 -10.8528 6.48417
head 0.991996 -5.34355 1.81432
lclavicle -4.48259e-14 7.95139e-15 0
lhumerus -48.2894 -32.1888 109.13
lradius 56.7657 0 0
lwrist 21.7113 0 0
lhand 4.87827 11.9278 0
lfingers 7.12502 0 0
lthumb 30.2539 39.4688 0
rclavicle -4.48259e-14 7.95139e-15 0
rhumerus -25.468 17.623 -77.8089
rradius 84.9958 0 0
rwrist 1.83289 0 0
rhand -3.14231 -13.9058 0
rfingers 7.12502 0 0
rthumb 22.5774 -42.606 0
343
root 8.01795 16.1543 -19.9057 10.4661 19.5711 2.62984
lfemur -7.38828 12.8372 -8.20153
ltibia 41.1284 -0 0
lfoot 11.3045 28.3568 -0.007129
ltoes -25.8875 0 0
rfemur -47.7414 -16.1818 14.6734
rtibia 54.6329 -0 0
rfoot 0.129277 -15.8123 -0.105606
rtoes -7.18105 0 0
lowerback -1.54136 -1.60007 -1.00712
upperback 1.5408 -2.11109 0.261749
thorax 2.4902 -1.07376 0.751442
lowerneck -6.11841 -7.96334 -0.626745
upperneck -1.24905 -10.6464 6.37
head 1.0435 -5.23727 1.78083
lclavicle 0 0 0
lhumerus -48.1493 -31.8088 108.915
lradius 56.7107 -0 0
lwrist 21.4429 0 0
lhand 4.44545 11.794 0.00781113
lfingers 0 0 0
lthumb 29.8398 39.3988 0.00390877
rclavicle 0 0 0
rhumerus -26.282 17.1441 -78.6862
rradius 84.6345 -0 0
rwrist 2.08784 0 0
rhand -5.73946 -15.8843 0.743212
rfingers 0 0 0
rthumb 20.0745 -44.6098 0.72341
